<?xml version="1.0" encoding="UTF-8"?>
<!DOCTYPE svg PUBLIC "-//W3C//DTD SVG 1.1//EN" "http://www.w3.org/Graphics/SVG/1.1/DTD/svg11.dtd">
<!-- Creator: CorelDRAW 2020 (64-Bit) -->
<svg xmlns="http://www.w3.org/2000/svg" xml:space="preserve" width="79.3876mm" height="79.6334mm" version="1.1" style="shape-rendering:geometricPrecision; text-rendering:geometricPrecision; image-rendering:optimizeQuality; fill-rule:evenodd; clip-rule:evenodd"
viewBox="0 0 41635.67 41764.58"
 xmlns:xlink="http://www.w3.org/1999/xlink"
 xmlns:xodm="http://www.corel.com/coreldraw/odm/2003">
 <defs>
  <style type="text/css">
   <![CDATA[
    .fil0 {fill:#070716}
    .fil1 {fill:white}
   ]]>
  </style>
 </defs>
 <g id="Слой_x0020_1">
  <metadata id="CorelCorpID_0Corel-Layer"/>
  <g id="_3028587235104">
   <path class="fil0" d="M11805.35 28731.89c-243.61,-877.06 -78.2,-11138.6 -86.9,-13527.73 -16.1,-4427.44 547.48,-3451.68 10206.79,-3451.68 1539.61,0 3079.79,4.09 4619.34,-1.1 4444.65,-14.89 3393.05,1005.71 3393.05,10309.37 0,1482.28 -4.2,2965.25 0.58,4447.48 14.58,4552.79 -586.77,3520.81 -10229.76,3520.81 -1539.24,0 -3079.42,-5.24 -4618.61,0.79 -1545.27,5.98 -2905.98,64.56 -3284.49,-1297.94zm7141.53 -28629.73c-10792.14,1057.37 -19929.87,10399.79 -18861.75,22593.03 957.67,10931.8 10523.83,20105.67 22718.32,18974.83 10799.64,-1001.51 19833.79,-10686.2 18742.65,-22630.16 -986.62,-10799.8 -10490.05,-20124.08 -22599.22,-18937.7z"/>
   <path class="fil1" d="M14397.49 19072.8l2793.59 0 0 8222.65 -2746.81 0 -46.78 -8222.65zm7527.74 949.54c1122.82,-1884.12 3742.24,-1184.97 4779.67,397.96 808.67,1233.79 484.5,5134.21 485.07,6875.15l-2724.47 0c0,-1852.55 767.71,-6256.24 -1421.71,-6179.46 -1859.32,65.19 -1303.23,3259.99 -1303.39,6187.53l-2724.99 -65.51 -0.21 -8150.43 2725.25 -14.79c4.09,698.63 -87.9,499.5 184.77,949.54zm-6754.84 -5559.28c2078.12,-1021.49 3142.73,1940.29 1443.89,2838.96 -954.1,504.74 -1972.81,-7.03 -2287.91,-777.25 -497.5,-1215.91 190.38,-1740.37 844.01,-2061.71zm-3365.04 14268.84c378.5,1362.5 1739.22,1303.91 3284.49,1297.94 1539.19,-6.03 3079.37,-0.79 4618.61,-0.79 9642.99,0 10244.34,1031.98 10229.76,-3520.81 -4.77,-1482.23 -0.58,-2965.2 -0.58,-4447.48 0,-9303.67 1051.6,-10324.27 -3393.05,-10309.37 -1539.55,5.19 -3079.74,1.1 -4619.34,1.1 -9659.31,0 -10222.89,-975.76 -10206.79,3451.68 8.71,2389.13 -156.71,12650.67 86.9,13527.73z"/>
   <path class="fil0" d="M21925.23 20022.33c-272.67,-450.04 -180.68,-250.9 -184.77,-949.54l-2725.25 14.79 0.21 8150.43 2724.99 65.51c0.16,-2927.54 -555.93,-6122.34 1303.39,-6187.53 2189.41,-76.78 1421.71,4326.9 1421.71,6179.46l2724.47 0c-0.58,-1740.95 323.59,-5641.36 -485.07,-6875.15 -1037.44,-1582.93 -3656.85,-2282.09 -4779.67,-397.96z"/>
   <polygon class="fil0" points="14444.27,27295.45 17191.08,27295.45 17191.08,19072.8 14397.49,19072.8 "/>
   <path class="fil0" d="M15170.39 14463.05c-653.64,321.34 -1341.52,845.8 -844.01,2061.71 315.1,770.22 1333.81,1281.99 2287.91,777.25 1698.83,-898.66 634.23,-3860.45 -1443.89,-2838.96z"/>
  </g>
 </g>
</svg>
