<?xml version="1.0" encoding="UTF-8"?>
<!DOCTYPE svg PUBLIC "-//W3C//DTD SVG 1.1//EN" "http://www.w3.org/Graphics/SVG/1.1/DTD/svg11.dtd">
<!-- Creator: CorelDRAW 2020 (64-Bit) -->
<svg xmlns="http://www.w3.org/2000/svg" xml:space="preserve" width="79.5996mm" height="79.4536mm" version="1.1" style="shape-rendering:geometricPrecision; text-rendering:geometricPrecision; image-rendering:optimizeQuality; fill-rule:evenodd; clip-rule:evenodd"
viewBox="0 0 3273.43 3267.43"
 xmlns:xlink="http://www.w3.org/1999/xlink"
 xmlns:xodm="http://www.corel.com/coreldraw/odm/2003">
 <defs>
  <style type="text/css">
   <![CDATA[
    .str0 {stroke:white;stroke-width:8.22;stroke-miterlimit:22.9256}
    .fil0 {fill:#070716}
    .fil1 {fill:white}
    .fil2 {fill:white}
   ]]>
  </style>
 </defs>
 <g id="Слой_x0020_1">
  <metadata id="CorelCorpID_0Corel-Layer"/>
  <path class="fil0" d="M822.74 1508.17c0,-553.79 138.74,-690.41 689.62,-690.41 508.85,0 943.74,-56.02 943.74,545.45 0,630.13 103.2,1087.2 -595.28,1087.2 -959.52,0 -1038.08,31.64 -1038.08,-942.24zm-811.76 304.42c95.08,837.35 843.93,1549.78 1804.73,1444.47 840.08,-92.08 1553.95,-844.96 1447.09,-1803.67 -93.25,-836.7 -844.46,-1547.65 -1802.53,-1443.15 -837.23,91.32 -1558.46,840.96 -1449.3,1802.35z"/>
  <path class="fil0" d="M1223.34 1682.13c-53.35,-572.08 792.48,-625.56 835.88,-85.31 45.16,562.15 -786.85,611.09 -835.88,85.31zm1079.81 333.41c23.63,-166.42 12.29,-474.34 6.71,-652.63 -6.94,-221.67 -63.56,-358.14 -278.83,-386.76 -177.31,-23.57 -479.17,-13.33 -664.21,-7.06 -230.11,7.8 -357.58,64.96 -385.68,282.17 -23.2,179.3 -13.36,476.62 -6.92,663.08 7.7,222.9 68.57,353.88 285.59,381.3 172.33,21.77 479.11,12.79 659.61,6.71 234.72,-7.9 352.12,-64.14 383.73,-286.81z"/>
  <path class="fil1" d="M2303.15 2015.53c-31.62,222.67 -149.02,278.91 -383.73,286.81 -180.5,6.07 -487.28,15.06 -659.61,-6.71 -217.02,-27.42 -277.89,-158.4 -285.59,-381.3 -6.44,-186.46 -16.28,-483.78 6.92,-663.08 28.1,-217.21 155.57,-274.37 385.68,-282.17 185.04,-6.27 486.91,-16.52 664.21,7.06 215.27,28.62 271.89,165.1 278.83,386.76 5.58,178.3 16.92,486.22 -6.71,652.63zm-1480.41 -507.36c0,973.88 78.56,942.24 1038.08,942.24 698.48,0 595.28,-457.07 595.28,-1087.2 0,-601.47 -434.89,-545.45 -943.74,-545.45 -550.88,0 -689.62,136.61 -689.62,690.41z"/>
  <path class="fil1" d="M1369.44 1653.13c-19.69,-365.83 516.92,-384.12 542.96,-40.28 27.53,363.65 -524.52,382.92 -542.96,40.28zm-146.1 28.99c49.04,525.78 881.04,476.84 835.88,-85.31 -43.4,-540.25 -889.24,-486.77 -835.88,85.31z"/>
  <path class="fil0" d="M1369.44 1653.13c18.44,342.63 570.49,323.37 542.96,-40.28 -26.04,-343.84 -562.64,-325.54 -542.96,40.28z"/>
  <circle class="fil2 str0" cx="2083.48" cy="1196.73" r="97.62"/>
 </g>
</svg>
