<?xml version="1.0" encoding="UTF-8"?>
<!DOCTYPE svg PUBLIC "-//W3C//DTD SVG 1.1//EN" "http://www.w3.org/Graphics/SVG/1.1/DTD/svg11.dtd">
<!-- Creator: CorelDRAW 2020 (64-Bit) -->
<svg xmlns="http://www.w3.org/2000/svg" xml:space="preserve" width="79.6699mm" height="79.5999mm" version="1.1" style="shape-rendering:geometricPrecision; text-rendering:geometricPrecision; image-rendering:optimizeQuality; fill-rule:evenodd; clip-rule:evenodd"
viewBox="0 0 2480.68 2478.5"
 xmlns:xlink="http://www.w3.org/1999/xlink"
 xmlns:xodm="http://www.corel.com/coreldraw/odm/2003">
 <defs>
  <style type="text/css">
   <![CDATA[
    .fil0 {fill:#070716}
    .fil1 {fill:white}
   ]]>
  </style>
 </defs>
 <g id="Слой_x0020_1">
  <metadata id="CorelCorpID_0Corel-Layer"/>
  <g id="_3029782582048">
   <path class="fil0" d="M1227.09 1000.79c-38.21,-317.86 263.02,-502.61 512.62,-316.02 39.29,29.37 1.51,27.62 65.56,18.94 45.86,-6.22 125.77,-51.1 163.18,-61.2 -30.31,75.11 -75.02,111.06 -116.36,166.95l152.78 -43.12c-49.52,110.32 -144.69,110.63 -149.34,200.76 -45.32,878.76 -944.7,1076.81 -1378.61,763.24 266.58,-1.57 260.67,-27.9 451.76,-125.12 -48.47,-29.81 -244.57,-49.4 -285.93,-225.16l127.82 -9.97c-133.5,-62.46 -229.97,-115.64 -242.96,-309.4l106.72 3.32c-10.6,-11.53 -6.13,-5.87 -16.71,-17.52 -104.26,-114.82 -115.59,-294.79 -41.68,-370.96 50.65,44.85 72.89,78.33 125.3,122.9 139.5,118.64 327.5,188.55 525.87,202.38zm1247.39 341.05c46.25,-451.26 -172.09,-835.62 -464.14,-1071.45 -755.28,-609.87 -1914.76,-128.94 -2004.86,851.5 -66.31,721.56 478.91,1294.78 1120.64,1351.38 719.48,63.46 1279.46,-459.25 1348.36,-1131.43z"/>
   <path class="fil1" d="M1227.09 1000.79c-198.38,-13.83 -386.37,-83.73 -525.87,-202.38 -52.41,-44.57 -74.65,-78.05 -125.3,-122.9 -73.9,76.17 -62.58,256.14 41.68,370.96 10.58,11.65 6.11,5.99 16.71,17.52l-106.72 -3.32c12.98,193.76 109.46,246.94 242.96,309.4l-127.82 9.97c41.36,175.77 237.47,195.35 285.93,225.16 -191.09,97.22 -185.18,123.55 -451.76,125.12 433.9,313.56 1333.29,115.52 1378.61,-763.24 4.65,-90.13 99.82,-90.43 149.34,-200.76l-152.78 43.12c41.34,-55.89 86.05,-91.83 116.36,-166.95 -37.41,10.1 -117.31,54.98 -163.18,61.2 -64.05,8.69 -26.27,10.43 -65.56,-18.94 -249.6,-186.59 -550.83,-1.84 -512.62,316.02z"/>
  </g>
 </g>
</svg>
